# xmcd CD database file generated by Grip 3.3.1
# 
# Track frame offsets:
#       150
#       21269
#       46550
#       65725
#       90106
#       111729
#       131624
#       163865
#       187958
#       217448
#       247246
# 
# Disc length: 3607 seconds
# 
# Revision: 2
# Processed by: cddbd v1.5.2PL0 Copyright (c) Steve Scherf et al.
# Submitted via: Grip 3.3.1
# 
DISCID=a30e150b
DTITLE=Ian Parker - Where I Belong
DYEAR=2007
DGENRE=Blues
TTITLE0=Where I Belong
TTITLE1=Your Love Is My Home
TTITLE2=Until You Show Me
TTITLE3=Coming Home
TTITLE4=Waste My Days
TTITLE5=Sweet Singing Sirens
TTITLE6=Love So Cold
TTITLE7=Before Our Eyes
TTITLE8=Don't Hold Back
TTITLE9=You Could Say
TTITLE10=Told My Girl To Go Away
EXTD=
EXTT0=
EXTT1=
EXTT2=
EXTT3=
EXTT4=
EXTT5=
EXTT6=
EXTT7=
EXTT8=
EXTT9=
EXTT10=
PLAYORDER=
